<svg xmlns="http://www.w3.org/2000/svg" xmlns:xlink="http://www.w3.org/1999/xlink" contentStyleType="text/css" data-diagram-type="ACTIVITY" height="219px" preserveAspectRatio="none" style="width:319px;height:219px;background:#FFFFFF;" version="1.1" viewBox="0 0 319 219" width="319px" zoomAndPan="magnify"><defs/><g><ellipse cx="130.1786" cy="20" fill="#222222" rx="10" ry="10" style="stroke:#222222;stroke-width:1;"/><polygon fill="#F1F1F1" points="81.5755,50,178.7818,50,190.7818,62,178.7818,74,81.5755,74,69.5755,62,81.5755,50" style="stroke:#181818;stroke-width:0.5;"/><text fill="#000000" font-family="sans-serif" font-size="11" lengthAdjust="spacing" textLength="97.2063" x="81.5755" y="66.268">Graphviz installed?</text><text fill="#000000" font-family="sans-serif" font-size="11" lengthAdjust="spacing" textLength="17.0829" x="52.4926" y="58.777">yes</text><text fill="#000000" font-family="sans-serif" font-size="11" lengthAdjust="spacing" textLength="13.4529" x="190.7818" y="58.777">no</text><rect fill="#F1F1F1" height="52.6882" rx="12.5" ry="12.5" style="stroke:#181818;stroke-width:0.5;" width="79.6644" x="11" y="84"/><text fill="#000000" font-family="sans-serif" font-size="12" lengthAdjust="spacing" textLength="59.6644" x="21" y="106.8281">process all</text><text fill="#000000" font-family="sans-serif" font-size="12" lengthAdjust="spacing" textLength="53.2444" x="21" y="123.1722">diagrams</text><rect fill="#F1F1F1" height="52.6882" rx="12.5" ry="12.5" style="stroke:#181818;stroke-width:0.5;" width="197.7212" x="110.6644" y="84"/><text fill="#000000" font-family="sans-serif" font-size="12" lengthAdjust="spacing" textLength="70.6325" x="120.6644" y="106.8281">process only</text><text fill="#000000" font-family="sans-serif" font-size="12" lengthAdjust="spacing" text-decoration="underline" textLength="54.0244" x="120.6644" y="123.1722">sequence</text><text fill="#000000" font-family="sans-serif" font-size="12" lengthAdjust="spacing" textLength="21.5281" x="177.8089" y="123.1722">and</text><text fill="#000000" font-family="sans-serif" font-size="12" lengthAdjust="spacing" text-decoration="underline" textLength="39.5643" x="202.457" y="123.1722">activity</text><text fill="#000000" font-family="sans-serif" font-size="12" lengthAdjust="spacing" textLength="53.2444" x="245.1413" y="123.1722">diagrams</text><polygon fill="#F1F1F1" points="130.1786,142.6882,142.1786,154.6882,130.1786,166.6882,118.1786,154.6882,130.1786,142.6882" style="stroke:#181818;stroke-width:0.5;"/><ellipse cx="130.1786" cy="197.6882" fill="transparent" rx="11" ry="11" style="stroke:#222222;stroke-width:1;"/><ellipse cx="130.1786" cy="197.6882" fill="#222222" rx="6" ry="6" style="stroke:#222222;stroke-width:1;"/><line style="stroke:#181818;stroke-width:1;" x1="69.5755" x2="50.8322" y1="62" y2="62"/><line style="stroke:#181818;stroke-width:1;" x1="50.8322" x2="50.8322" y1="62" y2="84"/><polygon fill="#181818" points="46.8322,74,50.8322,84,54.8322,74,50.8322,78" style="stroke:#181818;stroke-width:1;"/><line style="stroke:#181818;stroke-width:1;" x1="190.7818" x2="209.5251" y1="62" y2="62"/><line style="stroke:#181818;stroke-width:1;" x1="209.5251" x2="209.5251" y1="62" y2="84"/><polygon fill="#181818" points="205.5251,74,209.5251,84,213.5251,74,209.5251,78" style="stroke:#181818;stroke-width:1;"/><line style="stroke:#181818;stroke-width:1;" x1="50.8322" x2="50.8322" y1="136.6882" y2="154.6882"/><line style="stroke:#181818;stroke-width:1;" x1="50.8322" x2="118.1786" y1="154.6882" y2="154.6882"/><polygon fill="#181818" points="108.1786,150.6882,118.1786,154.6882,108.1786,158.6882,112.1786,154.6882" style="stroke:#181818;stroke-width:1;"/><line style="stroke:#181818;stroke-width:1;" x1="209.5251" x2="209.5251" y1="136.6882" y2="154.6882"/><line style="stroke:#181818;stroke-width:1;" x1="209.5251" x2="142.1786" y1="154.6882" y2="154.6882"/><polygon fill="#181818" points="152.1786,150.6882,142.1786,154.6882,152.1786,158.6882,148.1786,154.6882" style="stroke:#181818;stroke-width:1;"/><line style="stroke:#181818;stroke-width:1;" x1="130.1786" x2="130.1786" y1="30" y2="50"/><polygon fill="#181818" points="126.1786,40,130.1786,50,134.1786,40,130.1786,44" style="stroke:#181818;stroke-width:1;"/><line style="stroke:#181818;stroke-width:1;" x1="130.1786" x2="130.1786" y1="166.6882" y2="186.6882"/><polygon fill="#181818" points="126.1786,176.6882,130.1786,186.6882,134.1786,176.6882,130.1786,180.6882" style="stroke:#181818;stroke-width:1;"/><!--SRC=[LOmn3iCW34Ltdy8ZkK8wTEmna0LEOuaQYfr8zFGbMpl-zv-UENK7a0t3erFRJ_cWg3cLmlc-eE-i60RR0eXhwpMn6SuNvyv2pqulkm4NOmnQ_wogPLnQZCRlWpLnZ4YQ9w3aSegF2NuYccK3CA_j2m00]--></g></svg>